<svg width="27" height="27" viewBox="0 0 27 27" fill="none" xmlns="http://www.w3.org/2000/svg">
<path d="M0.500167 8.49993H26.5C26.6667 5.83326 25.9 0.499929 21.5 0.499929C21.5 0.499929 7.25158 0.49075 5.50007 0.499929C3.74856 0.509109 -2.98023e-08 2.5 0.500167 8.49993Z" fill="#62B7BD"/>
<path d="M4.00011 25.9999L23.5001 26L26.0001 23C26.2656 18.7428 26.2148 17.2149 26.5 14.5C26.5967 13.5792 26.39 11.7865 26.5 10.5C26.5733 9.64272 27.5845 9.01021 26.0001 9.01021C26.0001 9.01021 5.36786 8.47705 1.00019 8.49999C-0.566256 8.50821 0.282922 10.6817 0.500051 13C0.748717 15.655 0.499904 18.4999 0.499904 18.4999C0.97038 20.1077 0.612473 21.5024 1.50016 23.9999C1.85493 24.9981 3.91798 25.0127 4.00011 25.9999Z" fill="#A2C8DF"/>
<rect x="0.5" y="0.5" width="26" height="26" rx="5.5" stroke="#3D72B8"/>
<rect x="4" y="12" width="3" height="3" rx="1" fill="white"/>
<rect x="12" y="12" width="3" height="3" rx="1" fill="white"/>
<rect x="20" y="12" width="3" height="3" rx="1" fill="white"/>
<rect x="20" y="19" width="3" height="3" rx="1" fill="white"/>
<rect x="12" y="19" width="3" height="3" rx="1" fill="white"/>
<rect x="4" y="19" width="3" height="3" rx="1" fill="white"/>
<path d="M0 8.5H26.5" stroke="#3D72B8"/>
</svg>
